<svg width="322" height="94" viewBox="0 0 322 94" fill="none" xmlns="http://www.w3.org/2000/svg">
<path d="M300.181 22.7276H303.387V28.436H305.748V22.7276H308.954V20.9658H300.181V22.7276Z" fill="#8E191B"/>
<path d="M318.186 20.9658L315.614 25.6171L313.042 20.9658H309.73V28.436H311.985V23.2562L314.909 28.436H316.178L319.103 23.2562V28.436H321.393V20.9658H318.186Z" fill="#8E191B"/>
<path d="M95.2797 8.42154C95.2797 8.70343 95.3502 8.98532 95.4912 9.19674C95.8083 9.76053 96.2664 10.1481 96.8654 10.3243C97.4644 10.5005 98.0282 10.4653 98.592 10.1834C98.8739 10.0424 99.2615 9.86624 99.7196 9.61958C101.34 8.80914 102.609 8.24536 103.56 7.96346C104.476 7.68157 106.168 7.36444 108.634 7.04731C109.057 7.01208 109.41 6.87113 109.727 6.62447C110.044 6.37782 110.291 6.06069 110.431 5.70832C110.608 5.32072 110.643 4.96835 110.608 4.58075C110.537 3.94649 110.255 3.41794 109.762 3.03034C109.269 2.64274 108.705 2.50179 108.071 2.53703L63.3554 7.39968L65.9981 3.6646C66.3505 3.13605 66.4914 2.57226 66.3857 1.93801C66.28 1.30375 65.9629 0.810434 65.4696 0.458068C64.941 0.105702 64.3773 -0.0352439 63.7782 0.0704659C63.1792 0.176176 62.6859 0.493305 62.2983 0.986617L57.2947 7.9987L2.04372 13.6366C1.62088 13.6718 1.26852 13.8127 0.951387 14.0594C0.634258 14.306 0.387602 14.5879 0.211419 14.9755C0.0352357 15.3631 -8.74738e-07 15.7508 0.0352357 16.1384C0.105709 16.7374 0.387602 17.2307 0.810441 17.6183C1.23328 18.0059 1.76183 18.2173 2.39609 18.1821C2.46656 18.1821 2.5018 18.1821 2.53703 18.1821L53.771 12.9671L48.0627 21.001H33.5452V31.8186H40.3811L22.4105 57.0833C21.8467 57.0128 21.3534 57.1185 20.8953 57.4356C20.4372 57.7528 20.1553 58.1756 20.0144 58.7042C19.5211 60.5012 18.7811 62.0869 17.8297 63.5316C17.4773 64.0601 17.3364 64.5887 17.4773 65.2229C17.6183 65.822 17.9354 66.3153 18.4287 66.6324C18.8516 66.9143 19.3097 67.0552 19.803 67.02C20.5782 67.02 21.142 66.6676 21.5648 66.0686L59.7613 12.2976L95.2445 8.42154H95.2797Z" fill="#8E191B"/>
<path d="M47.1113 32.2768V52.4321H63.1439V31.7835H76.71V20.9658H53.771L47.1113 32.2768Z" fill="#8E191B"/>
<path d="M129.741 39.8879L124.878 20.9658H105.639L100.706 39.5355L95.4207 20.9658H77.2738V21.741L87.9857 52.4321H109.762L114.554 34.9547L119.276 52.4321H140.77L152.046 20.9658H134.745L129.741 39.8879Z" fill="#8E191B"/>
<path d="M184.922 33.8976C184.922 37.3508 183.301 41.1212 176.712 41.1212H176.641C169.911 41.1212 168.431 37.3508 168.431 33.8976V20.9658H152.293V35.5538C152.293 41.8611 154.618 52.9606 175.584 52.9606H177.698C198.664 52.9606 201.06 41.8611 201.06 35.5538V20.9658H184.922V33.8976Z" fill="#8E191B"/>
<path d="M227.1 40.9802H235.592C235.592 41.8611 233.901 43.7639 227.664 43.7639C221.427 43.7639 219.031 40.6278 219.031 36.7165V36.3289C219.031 32.5234 221.532 29.8806 227.769 29.8806C234.746 29.8806 235.768 32.1358 236.015 32.8757H252.4C252.4 28.2598 250.286 20.3668 228.016 20.3668H226.677C207.332 20.3668 202.505 27.9779 202.505 35.9766V37.2451C202.505 44.4334 206.698 53.1016 224.281 53.1016H225.373C235.275 53.1016 238.904 50.0712 239.961 49.1551C240.736 49.9655 241.617 51.5511 241.864 52.4673H252.646V34.6023H227.135V41.0154L227.1 40.9802Z" fill="#8E191B"/>
<path d="M267.869 20.9658L253.034 52.3969H269.278L270.934 48.6265H286.65L288.306 52.3969H306.241L290.49 20.9658H267.904H267.869ZM274.916 39.3593L278.686 30.6559L282.527 39.3593H274.916Z" fill="#8E191B"/>
<path d="M117.844 68.048C117.284 68.048 116.793 67.936 116.372 67.712C115.956 67.4827 115.631 67.1707 115.396 66.776C115.161 66.376 115.044 65.9253 115.044 65.424V62.392H116.252V65.384C116.252 65.688 116.321 65.96 116.46 66.2C116.599 66.4347 116.788 66.6213 117.028 66.76C117.268 66.8933 117.537 66.96 117.836 66.96C118.151 66.96 118.431 66.8933 118.676 66.76C118.921 66.6213 119.113 66.4347 119.252 66.2C119.396 65.96 119.468 65.688 119.468 65.384V62.392H120.636V65.424C120.636 65.9253 120.519 66.376 120.284 66.776C120.049 67.1707 119.721 67.4827 119.3 67.712C118.884 67.936 118.399 68.048 117.844 68.048ZM123.1 68V62.4H124.236L128.228 66.584H128.068C128.041 66.3973 128.02 66.216 128.004 66.04C127.988 65.8587 127.972 65.68 127.956 65.504C127.945 65.328 127.935 65.1547 127.924 64.984C127.919 64.808 127.913 64.6347 127.908 64.464C127.908 64.288 127.908 64.1093 127.908 63.928V62.4H129.084V68H127.932L123.876 63.776L124.116 63.784C124.132 63.9067 124.145 64.032 124.156 64.16C124.172 64.288 124.185 64.4213 124.196 64.56C124.212 64.6987 124.225 64.8427 124.236 64.992C124.252 65.136 124.263 65.2933 124.268 65.464C124.273 65.6293 124.276 65.8027 124.276 65.984V68H123.1ZM131.616 68V62.4H132.712L135.16 65.592H134.528L136.984 62.4H138.064V68H136.888V66.016C136.888 65.568 136.898 65.1493 136.92 64.76C136.946 64.3707 136.989 63.976 137.048 63.576L137.176 63.976L135.104 66.56H134.576L132.496 63.968L132.632 63.576C132.696 63.9707 132.738 64.3627 132.76 64.752C132.781 65.136 132.792 65.5573 132.792 66.016V68H131.616ZM139.832 68L142.472 62.4H143.648L146.288 68H145.032L143.424 64.6C143.371 64.4933 143.32 64.3867 143.272 64.28C143.224 64.1733 143.179 64.0667 143.136 63.96C143.093 63.848 143.051 63.7387 143.008 63.632C142.971 63.5253 142.936 63.416 142.904 63.304L143.176 63.296C143.144 63.4187 143.107 63.536 143.064 63.648C143.021 63.76 142.976 63.8693 142.928 63.976C142.88 64.0827 142.832 64.1893 142.784 64.296C142.736 64.4027 142.688 64.512 142.64 64.624L141.04 68H139.832ZM141.032 66.888L141.44 65.92H144.632L144.848 66.888H141.032ZM149.135 68V63.48H147.055V62.4H152.463V63.48H150.335V68H149.135ZM157.042 68.08C156.584 68.08 156.154 68.0133 155.754 67.88C155.36 67.7413 155.013 67.544 154.714 67.288C154.416 67.0267 154.184 66.72 154.018 66.368C153.853 66.0107 153.77 65.616 153.77 65.184C153.77 64.7627 153.856 64.3787 154.026 64.032C154.197 63.6853 154.432 63.3813 154.73 63.12C155.029 62.8587 155.376 62.6587 155.77 62.52C156.17 62.3813 156.597 62.312 157.05 62.312C157.386 62.312 157.712 62.352 158.026 62.432C158.346 62.512 158.637 62.6213 158.898 62.76C159.165 62.8933 159.386 63.0427 159.562 63.208L158.858 64.144C158.698 64.0107 158.525 63.8907 158.338 63.784C158.157 63.672 157.954 63.584 157.73 63.52C157.506 63.456 157.256 63.424 156.978 63.424C156.733 63.424 156.493 63.4667 156.258 63.552C156.024 63.632 155.81 63.7467 155.618 63.896C155.432 64.0453 155.28 64.232 155.162 64.456C155.05 64.6747 154.994 64.92 154.994 65.192C154.994 65.48 155.053 65.736 155.17 65.96C155.288 66.1787 155.448 66.3653 155.65 66.52C155.853 66.6693 156.082 66.7813 156.338 66.856C156.594 66.9307 156.861 66.968 157.138 66.968C157.421 66.968 157.674 66.9307 157.898 66.856C158.122 66.7813 158.322 66.688 158.498 66.576C158.674 66.464 158.832 66.3547 158.97 66.248L159.538 67.2C159.389 67.3227 159.186 67.4533 158.93 67.592C158.68 67.7307 158.392 67.848 158.066 67.944C157.741 68.0347 157.4 68.08 157.042 68.08ZM166.032 68V62.4H167.232V68H166.032ZM161.608 68V62.4H162.808V68H161.608ZM162.088 65.776L162.104 64.688H166.648V65.776H162.088ZM169.756 68V62.4H174.436V63.456H170.924V66.944H174.492V68H169.756ZM170.38 65.656V64.632H174.052V65.656H170.38ZM176.811 68V62.4H179.619C180.12 62.4 180.566 62.4747 180.955 62.624C181.344 62.768 181.672 62.9707 181.939 63.232C182.211 63.488 182.416 63.7867 182.555 64.128C182.694 64.464 182.763 64.8213 182.763 65.2C182.763 65.584 182.694 65.9467 182.555 66.288C182.416 66.6293 182.211 66.928 181.939 67.184C181.672 67.44 181.344 67.64 180.955 67.784C180.566 67.928 180.12 68 179.619 68H176.811ZM178.011 67.128L177.883 66.92H179.579C179.915 66.92 180.203 66.8747 180.443 66.784C180.688 66.6933 180.891 66.568 181.051 66.408C181.211 66.248 181.328 66.064 181.403 65.856C181.478 65.648 181.515 65.4293 181.515 65.2C181.515 64.9707 181.478 64.7547 181.403 64.552C181.328 64.344 181.211 64.16 181.051 64C180.891 63.84 180.688 63.7147 180.443 63.624C180.203 63.528 179.915 63.48 179.579 63.48H177.859L178.011 63.288V67.128ZM190.43 68L187.918 62.4H189.19L190.486 65.384C190.524 65.4747 190.572 65.5867 190.63 65.72C190.689 65.8533 190.753 66 190.822 66.16C190.892 66.32 190.958 66.4827 191.022 66.648C191.086 66.8133 191.142 66.9707 191.19 67.12L190.918 67.128C190.977 66.9413 191.046 66.7467 191.126 66.544C191.212 66.336 191.294 66.136 191.374 65.944C191.46 65.7467 191.537 65.5627 191.606 65.392L192.822 62.4H194.094L191.638 68H190.43ZM194.519 68L197.159 62.4H198.335L200.975 68H199.719L198.111 64.6C198.058 64.4933 198.007 64.3867 197.959 64.28C197.911 64.1733 197.866 64.0667 197.823 63.96C197.781 63.848 197.738 63.7387 197.695 63.632C197.658 63.5253 197.623 63.416 197.591 63.304L197.863 63.296C197.831 63.4187 197.794 63.536 197.751 63.648C197.709 63.76 197.663 63.8693 197.615 63.976C197.567 64.0827 197.519 64.1893 197.471 64.296C197.423 64.4027 197.375 64.512 197.327 64.624L195.727 68H194.519ZM195.719 66.888L196.127 65.92H199.319L199.535 66.888H195.719ZM202.725 68V62.4H203.925V66.92H207.357V68H202.725ZM212.071 68.048C211.511 68.048 211.02 67.936 210.599 67.712C210.183 67.4827 209.857 67.1707 209.623 66.776C209.388 66.376 209.271 65.9253 209.271 65.424V62.392H210.479V65.384C210.479 65.688 210.548 65.96 210.687 66.2C210.825 66.4347 211.015 66.6213 211.255 66.76C211.495 66.8933 211.764 66.96 212.062 66.96C212.377 66.96 212.657 66.8933 212.903 66.76C213.148 66.6213 213.34 66.4347 213.479 66.2C213.623 65.96 213.695 65.688 213.695 65.384V62.392H214.863V65.424C214.863 65.9253 214.745 66.376 214.511 66.776C214.276 67.1707 213.948 67.4827 213.527 67.712C213.111 67.936 212.625 68.048 212.071 68.048ZM217.327 68V62.4H222.007V63.456H218.495V66.944H222.063V68H217.327ZM217.951 65.656V64.632H221.623V65.656H217.951ZM226.725 68.08C226.309 68.08 225.925 68.04 225.573 67.96C225.227 67.8747 224.912 67.7573 224.629 67.608C224.347 67.4587 224.088 67.2773 223.853 67.064L224.485 66.12C224.859 66.456 225.237 66.696 225.621 66.84C226.005 66.984 226.397 67.056 226.797 67.056C226.995 67.056 227.192 67.0347 227.389 66.992C227.587 66.944 227.749 66.872 227.877 66.776C228.005 66.6747 228.069 66.5413 228.069 66.376C228.069 66.28 228.037 66.1973 227.973 66.128C227.915 66.0587 227.829 66.0027 227.717 65.96C227.605 65.912 227.48 65.872 227.341 65.84C227.203 65.808 227.056 65.784 226.901 65.768C226.752 65.7467 226.603 65.7307 226.453 65.72C226.101 65.672 225.781 65.6053 225.493 65.52C225.211 65.4293 224.968 65.3173 224.765 65.184C224.568 65.0453 224.416 64.88 224.309 64.688C224.203 64.4907 224.149 64.2693 224.149 64.024C224.149 63.752 224.213 63.5093 224.341 63.296C224.475 63.0773 224.659 62.8933 224.893 62.744C225.128 62.5947 225.397 62.4827 225.701 62.408C226.011 62.328 226.344 62.288 226.701 62.288C227.085 62.288 227.429 62.3253 227.733 62.4C228.043 62.4747 228.315 62.5787 228.549 62.712C228.784 62.8453 228.979 62.9973 229.133 63.168L228.477 63.992C228.328 63.848 228.155 63.728 227.957 63.632C227.765 63.5307 227.56 63.4533 227.341 63.4C227.123 63.3467 226.899 63.32 226.669 63.32C226.429 63.32 226.216 63.344 226.029 63.392C225.843 63.4347 225.693 63.5013 225.581 63.592C225.475 63.6827 225.421 63.7973 225.421 63.936C225.421 64.0427 225.461 64.1387 225.541 64.224C225.627 64.304 225.739 64.368 225.877 64.416C226.016 64.464 226.173 64.504 226.349 64.536C226.531 64.568 226.715 64.5973 226.901 64.624C227.216 64.6667 227.517 64.72 227.805 64.784C228.099 64.8427 228.36 64.928 228.589 65.04C228.824 65.152 229.005 65.304 229.133 65.496C229.267 65.688 229.333 65.936 229.333 66.24C229.333 66.6187 229.221 66.9467 228.997 67.224C228.779 67.5013 228.472 67.7147 228.077 67.864C227.688 68.008 227.237 68.08 226.725 68.08Z" fill="#8E191B"/>
</svg>
